<svg xmlns="http://www.w3.org/2000/svg" fill="none" viewBox="0 0 231 248"><path fill="#fff" fill-rule="evenodd" d="M165 189c31-4 58-23 61-41 5-27 5-67 5-67 0-53-35-69-35-69-18-8-49-12-80-12h-1C83 0 53 4 35 12c0 0-35 16-35 69a2121 2121 0 0 1 0 43c1 52 10 104 58 117 23 6 42 7 57 6 29-1 44-10 44-10l-1-20s-20 6-42 5c-23 0-46-2-50-29v-8a288 288 0 0 0 99 4Zm24-39V85c0-13-3-23-10-31s-16-12-27-12c-14 0-24 5-30 15l-7 11-6-11c-7-10-17-15-30-15-11 0-20 4-27 12S41 72 41 85v65h26V87c0-13 6-20 17-20 12 0 19 8 19 24v35h25V91c0-16 6-24 19-24 11 0 17 7 17 20v63h25Z" clip-rule="evenodd"/></svg>