<svg xmlns="http://www.w3.org/2000/svg" xml:space="preserve" viewBox="0 0 27.9 32"><path fill="#fff" d="M27 31.2V.7h-2.2V0h3v32h-3v-.7l2.2-.1zM8.1 10.4V12c.4-.6.9-1 1.5-1.4.6-.3 1.2-.5 2-.5.7 0 1.4.1 2 .4A3 3 0 0 1 15 12c.3-.5.8-.9 1.4-1.3.6-.4 1.3-.6 2.1-.6l1.7.2c.5.1 1 .4 1.3.7.4.3.7.7.9 1.3.2.5.3 1.1.3 2v7.5h-3.1v-7.6l-.2-.9a.9.9 0 0 0-.6-.6 3 3 0 0 0-1-.2 2 2 0 0 0-1.1.3c-.3.2-.5.4-.6.7l-.3.9-.1 1.1v6.3h-3.1v-7.4l-.2-.9c-.1-.3-.3-.5-.6-.7-.3-.2-.6-.3-1.1-.3l-.6.1-.7.4-.6.8c-.2.3-.2.8-.2 1.4v6.6H5.2V10.4h2.9zM.8.7v30.5H3v.8H0V0h3v.7H.8z"/></svg>