<svg width="439" height="144" viewBox="0 0 439 144" fill="none" xmlns="http://www.w3.org/2000/svg">
<path d="M29.952 63H38.016V12.744H29.952V34.128H13.248V12.744H5.184V63H13.248V40.896H29.952V63ZM83.4199 63V56.808H78.7399V38.16C78.7399 29.664 72.9799 24.984 63.6199 24.984C55.7719 24.984 50.7319 28.368 48.6439 32.4L53.3239 36.216C55.3399 33.12 58.1479 31.104 62.8999 31.104C68.2279 31.104 70.8919 33.696 70.8919 38.664V41.544H63.7639C52.7479 41.544 47.4919 45.432 47.4919 52.632C47.4919 59.616 52.3879 63.864 59.9479 63.864C65.7799 63.864 69.6679 61.2 71.1079 56.736H71.4679C71.8999 60.48 74.1319 63 78.5959 63H83.4199ZM62.1799 58.104C58.0039 58.104 55.4119 56.376 55.4119 53.064V51.624C55.4119 48.312 58.1479 46.512 63.9079 46.512H70.8919V51.912C70.8919 55.584 67.2199 58.104 62.1799 58.104ZM109.312 63.864C117.088 63.864 121.912 60.192 124.288 55.008L118.528 51.48C116.8 55.08 113.992 57.384 109.384 57.384C103.264 57.384 99.8798 53.352 99.8798 47.52V41.328C99.8798 35.424 103.336 31.464 109.24 31.464C113.56 31.464 116.296 33.624 117.592 37.08L123.712 33.768C121.408 28.584 116.872 24.984 109.24 24.984C98.2958 24.984 91.6718 32.544 91.6718 44.424C91.6718 56.304 98.2238 63.864 109.312 63.864ZM135.852 63H143.7V49.752L148.884 44.928L161.844 63H171.276L154.572 40.464L169.62 25.848H160.332L149.892 35.928L144.06 41.904H143.7V9.72H135.852V63ZM196.592 19.08C200.48 19.08 201.92 17.208 201.92 14.832V13.32C201.92 10.944 200.48 9.072 196.52 9.072C192.632 9.072 191.191 10.944 191.191 13.32V14.832C191.191 17.208 192.632 19.08 196.592 19.08ZM179.96 63H212.359V56.664H200.48V25.848H179.96V32.184H192.632V56.664H179.96V63ZM229.755 63V37.8C229.755 33.48 233.787 31.392 237.819 31.392C242.859 31.392 245.523 34.344 245.523 40.248V63H253.371V39.096C253.371 30.096 248.331 24.984 240.843 24.984C234.723 24.984 231.699 28.296 230.115 32.184H229.755V25.848H221.907V63H229.755ZM300.071 67.032C300.071 60.912 295.967 56.736 285.959 56.736H277.607C274.367 56.736 271.847 56.448 271.847 54.144C271.847 52.128 274.007 50.976 275.735 50.544C277.175 50.832 278.687 50.976 280.343 50.976C289.487 50.976 295.463 45.936 295.463 38.016C295.463 33.552 293.663 30.096 290.423 27.864V26.136H299.063V19.944H292.295C288.983 19.944 287.327 22.104 287.327 24.984V26.208C285.311 25.416 282.935 24.984 280.343 24.984C271.199 24.984 265.223 30.096 265.223 38.016C265.223 43.344 267.887 47.304 272.351 49.392V49.752C268.463 50.688 265.655 52.344 265.655 56.016C265.655 58.824 267.239 60.48 269.759 61.416V62.136C265.655 63.216 263.279 65.304 263.279 69.336C263.279 74.88 267.743 78.264 280.559 78.264C293.663 78.264 300.071 74.664 300.071 67.032ZM292.727 67.536C292.727 70.92 289.487 72.72 283.583 72.72H277.751C272.279 72.72 270.119 70.416 270.119 67.608C270.119 65.664 271.055 64.296 272.855 63.432H285.743C290.999 63.432 292.727 65.016 292.727 67.536ZM280.343 45.576C275.303 45.576 272.927 42.912 272.927 38.952V37.008C272.927 33.048 275.303 30.384 280.343 30.384C285.383 30.384 287.759 33.048 287.759 37.008V38.952C287.759 42.912 285.383 45.576 280.343 45.576ZM369.279 19.08C373.167 19.08 374.607 17.208 374.607 14.832V13.32C374.607 10.944 373.167 9.072 369.207 9.072C365.319 9.072 363.879 10.944 363.879 13.32V14.832C363.879 17.208 365.319 19.08 369.279 19.08ZM352.647 63H385.047V56.664H373.167V25.848H352.647V32.184H365.319V56.664H352.647V63ZM402.443 63V37.8C402.443 33.48 406.475 31.392 410.507 31.392C415.547 31.392 418.211 34.344 418.211 40.248V63H426.059V39.096C426.059 30.096 421.019 24.984 413.531 24.984C407.411 24.984 404.387 28.296 402.803 32.184H402.443V25.848H394.595V63H402.443ZM14.112 135V114.984H24.84C34.344 114.984 39.6 109.224 39.6 99.864C39.6 90.504 34.344 84.744 24.84 84.744H6.048V135H14.112ZM14.112 91.44H23.616C28.656 91.44 31.104 93.672 31.104 98.28V101.376C31.104 105.984 28.656 108.288 23.616 108.288H14.112V91.44ZM83.4199 135V128.808H78.7399V110.16C78.7399 101.664 72.9799 96.984 63.6199 96.984C55.7719 96.984 50.7319 100.368 48.6439 104.4L53.3239 108.216C55.3399 105.12 58.1479 103.104 62.8999 103.104C68.2279 103.104 70.8919 105.696 70.8919 110.664V113.544H63.7639C52.7479 113.544 47.4919 117.432 47.4919 124.632C47.4919 131.616 52.3879 135.864 59.9479 135.864C65.7799 135.864 69.6679 133.2 71.1079 128.736H71.4679C71.8999 132.48 74.1319 135 78.5959 135H83.4199ZM62.1799 130.104C58.0039 130.104 55.4119 128.376 55.4119 125.064V123.624C55.4119 120.312 58.1479 118.512 63.9079 118.512H70.8919V123.912C70.8919 127.584 67.2199 130.104 62.1799 130.104ZM91.8158 135H122.992V128.664H109.528V111.528C109.528 107.712 113.128 105.336 118.888 105.336H126.664V97.848H121.408C115 97.848 111.472 101.664 109.96 105.768H109.528V97.848H91.8158V104.184H101.68V128.664H91.8158V135ZM169.764 135V128.808H165.084V110.16C165.084 101.664 159.324 96.984 149.964 96.984C142.116 96.984 137.076 100.368 134.988 104.4L139.668 108.216C141.684 105.12 144.492 103.104 149.244 103.104C154.572 103.104 157.236 105.696 157.236 110.664V113.544H150.108C139.092 113.544 133.836 117.432 133.836 124.632C133.836 131.616 138.732 135.864 146.292 135.864C152.124 135.864 156.012 133.2 157.452 128.736H157.812C158.244 132.48 160.476 135 164.94 135H169.764ZM148.524 130.104C144.348 130.104 141.756 128.376 141.756 125.064V123.624C141.756 120.312 144.492 118.512 150.252 118.512H157.236V123.912C157.236 127.584 153.564 130.104 148.524 130.104ZM178.088 135H210.56V128.664H198.248V81.72H178.088V88.056H190.4V128.664H178.088V135ZM221.259 135H253.731V128.664H241.419V81.72H221.259V88.056H233.571V128.664H221.259V135ZM281.423 135.864C289.055 135.864 294.239 132.48 296.759 128.16L291.863 123.84C289.775 127.296 286.319 129.528 281.567 129.528C275.159 129.528 271.271 125.424 271.271 119.592V118.368H297.911V115.416C297.911 104.472 291.287 96.984 280.847 96.984C270.263 96.984 263.351 104.544 263.351 116.496C263.351 128.304 270.047 135.864 281.423 135.864ZM280.847 102.96C286.319 102.96 289.919 106.776 289.919 112.608V113.328H271.271V112.824C271.271 107.064 275.231 102.96 280.847 102.96ZM307.603 135H340.075V128.664H327.763V81.72H307.603V88.056H319.915V128.664H307.603V135Z" fill="white"/>
<path d="M353 135.248H360.675L393 81H385.325L353 135.248Z" fill="url(#paint0_linear_26_439)"/>
<path d="M368 135.248H375.675L408 81H400.325L368 135.248Z" fill="url(#paint1_linear_26_439)"/>
<path d="M383 135.248H390.675L423 81H415.325L383 135.248Z" fill="url(#paint2_linear_26_439)"/>
<path d="M399 135.248H406.675L439 81H431.325L399 135.248Z" fill="url(#paint3_linear_26_439)"/>
<defs>
<linearGradient id="paint0_linear_26_439" x1="357.593" y1="135.248" x2="357.593" y2="81" gradientUnits="userSpaceOnUse">
<stop stop-color="#FF9900"/>
<stop offset="1" stop-color="#44B4E9"/>
</linearGradient>
<linearGradient id="paint1_linear_26_439" x1="372.425" y1="135.248" x2="372.425" y2="81" gradientUnits="userSpaceOnUse">
<stop stop-color="#6C2400"/>
<stop offset="0.347421" stop-color="#003A3E"/>
<stop offset="0.684919" stop-color="#267400"/>
<stop offset="1" stop-color="#FFD630"/>
</linearGradient>
<linearGradient id="paint2_linear_26_439" x1="387.425" y1="135.248" x2="387.425" y2="81" gradientUnits="userSpaceOnUse">
<stop stop-color="#F0C728"/>
<stop offset="1" stop-color="white"/>
</linearGradient>
<linearGradient id="paint3_linear_26_439" x1="431.5" y1="87" x2="431.221" y2="135.408" gradientUnits="userSpaceOnUse">
<stop stop-color="#F8E830"/>
<stop offset="0.526042" stop-color="#3CACD7"/>
<stop offset="1" stop-color="#002E5C"/>
</linearGradient>
</defs>
</svg>
