<svg xmlns="http://www.w3.org/2000/svg" fill="none" viewBox="0 0 1024 128"><path fill="#fff" d="M71 91h8V40.7h-8v21.4H54.2V40.7h-8V91h8V68.9H71V91Zm53.4 0v-6.2h-4.7V66.2c0-8.5-5.7-13.2-15-13.2-8 0-13 3.4-15 7.4l4.6 3.8c2-3 4.8-5.1 9.6-5.1 5.3 0 8 2.6 8 7.6v2.8h-7.1c-11 0-16.3 4-16.3 11.1 0 7 4.9 11.3 12.4 11.3 5.9 0 9.8-2.7 11.2-7.2h.4c.4 3.8 2.6 6.3 7.1 6.3h4.8Zm-21.2-4.9c-4.2 0-6.8-1.7-6.8-5v-1.5c0-3.3 2.7-5 8.5-5h7v5.3c0 3.7-3.7 6.2-8.7 6.2Zm47.1 5.8c7.8 0 12.6-3.7 15-8.9l-5.8-3.5a9.4 9.4 0 0 1-9.1 5.9c-6.1 0-9.5-4-9.5-9.9v-6.2c0-5.9 3.4-9.8 9.3-9.8 4.4 0 7.1 2.1 8.4 5.6l6.1-3.3c-2.3-5.2-6.8-8.8-14.5-8.8-10.9 0-17.5 7.5-17.5 19.4 0 11.9 6.5 19.5 17.6 19.5ZM177 91h7.8V77.8l5.2-4.9L203 91h9.4l-16.7-22.5 15-14.7h-9.3L191 64l-5.8 6h-.4V37.7H177V91Zm60.7-44c3.9 0 5.3-1.8 5.3-4.2v-1.5c0-2.4-1.4-4.2-5.4-4.2-3.9 0-5.3 1.8-5.3 4.2v1.5c0 2.4 1.4 4.3 5.4 4.3ZM221 91h32.4v-6.3h-12V53.8H221v6.4h12.6v24.5H221V91Zm49.8 0V65.8c0-4.3 4-6.4 8-6.4 5 0 7.7 3 7.7 8.8V91h7.9V67.1c0-9-5-14.1-12.6-14.1-6 0-9.1 3.3-10.7 7.2h-.3v-6.4h-7.9V91h7.9Zm70.3 4c0-6-4.1-10.3-14.1-10.3h-8.4c-3.2 0-5.8-.3-5.8-2.6 0-2 2.2-3.1 4-3.6 1.4.3 2.9.5 4.5.5 9.2 0 15.2-5 15.2-13 0-4.4-1.8-7.9-5-10.1V54h8.6v-6h-6.8c-3.3 0-5 2.2-5 5v1.3a19 19 0 0 0-7-1.2c-9.1 0-15 5.1-15 13a12 12 0 0 0 7 11.4v.4c-3.8.9-6.6 2.5-6.6 6.2 0 2.8 1.5 4.5 4 5.4v.7c-4 1.1-6.4 3.2-6.4 7.2 0 5.6 4.4 9 17.3 9 13 0 19.5-3.6 19.5-11.3Zm-7.4.5c0 3.4-3.2 5.2-9.1 5.2h-5.8c-5.5 0-7.7-2.3-7.7-5 0-2 1-3.4 2.8-4.3h12.8c5.3 0 7 1.6 7 4.1Zm-12.4-22c-5 0-7.4-2.6-7.4-6.5v-2c0-4 2.4-6.6 7.4-6.6s7.5 2.6 7.5 6.6v2c0 4-2.4 6.6-7.5 6.6Zm89-26.4c3.9 0 5.3-1.9 5.3-4.3v-1.5c0-2.4-1.4-4.2-5.4-4.2-3.9 0-5.3 1.8-5.3 4.2v1.5c0 2.4 1.4 4.3 5.4 4.3ZM393.6 91H426v-6.3h-11.8V53.8h-20.6v6.4h12.7v24.5h-12.7V91Zm49.8 0V65.8c0-4.3 4-6.4 8.1-6.4 5 0 7.7 3 7.7 8.8V91h7.9V67.1c0-9-5-14.1-12.6-14.1-6 0-9.1 3.3-10.7 7.2h-.4v-6.4h-7.8V91h7.8Zm86.6 0V71h10.7c9.5 0 14.8-5.8 14.8-15.1 0-9.4-5.3-15.2-14.8-15.2H522V91h8.1Zm0-43.6h9.5c5 0 7.5 2.3 7.5 6.9v3c0 4.7-2.5 7-7.5 7H530V47.4ZM599.3 91v-6.2h-4.7V66.2c0-8.5-5.7-13.2-15-13.2-8 0-13 3.4-15 7.4l4.6 3.8c2-3 4.8-5.1 9.6-5.1 5.3 0 8 2.6 8 7.6v2.8h-7.1c-11 0-16.3 4-16.3 11.1 0 7 4.9 11.3 12.4 11.3 5.9 0 9.8-2.7 11.2-7.2h.4c.4 3.8 2.6 6.3 7 6.3h5Zm-21.2-4.9c-4.2 0-6.8-1.7-6.8-5v-1.5c0-3.3 2.7-5 8.5-5h7v5.3c0 3.7-3.7 6.2-8.7 6.2Zm29.6 4.9H639v-6.3h-13.5V67.5c0-3.8 3.6-6.2 9.4-6.2h7.8v-7.5h-5.3c-6.4 0-10 3.9-11.4 8h-.5v-8h-17.7v6.4h9.9v24.5h-9.9V91Zm78 0v-6.2H681V66.2c0-8.5-5.8-13.2-15.1-13.2-7.9 0-13 3.4-15 7.4l4.7 3.8c2-3 4.8-5.1 9.5-5.1 5.4 0 8 2.6 8 7.6v2.8H666c-11 0-16.3 4-16.3 11.1 0 7 5 11.3 12.5 11.3 5.8 0 9.7-2.7 11.1-7.2h.4c.4 3.8 2.7 6.3 7.1 6.3h4.9Zm-21.3-4.9c-4.2 0-6.8-1.7-6.8-5v-1.5c0-3.3 2.8-5 8.5-5h7v5.3c0 3.7-3.6 6.2-8.7 6.2ZM694 91h32.5v-6.3H714v-47h-20v6.4h12.3v40.6H694V91Zm43.1 0h32.5v-6.3h-12.3v-47h-20.1v6.4h12.3v40.6H737V91Zm60.2.9c7.6 0 12.8-3.4 15.4-7.7l-5-4.4c-2 3.5-5.5 5.7-10.2 5.7-6.5 0-10.3-4-10.3-10v-1.1h26.6v-3c0-11-6.6-18.4-17-18.4-10.6 0-17.6 7.5-17.6 19.5 0 11.8 6.7 19.4 18.1 19.4Zm-.6-33c5.5 0 9.1 3.9 9.1 9.7v.7h-18.6v-.5c0-5.7 4-9.8 9.5-9.8ZM823.5 91H856v-6.3h-12.3v-47h-20.2v6.4h12.3v40.6h-12.3V91Z"/><path fill="url(#a)" d="M897 91.2h7.7L937 37h-7.7L897 91.2Z"/><path fill="url(#b)" d="M912 91.2h7.7L952 37h-7.7L912 91.2Z"/><path fill="url(#c)" d="M927 91.2h7.7L967 37h-7.7L927 91.2Z"/><path fill="url(#d)" d="M943 91.2h7.7L983 37h-7.7L943 91.2Z"/><defs><linearGradient id="a" x1="901.6" x2="901.6" y1="91.2" y2="37" gradientUnits="userSpaceOnUse"><stop stop-color="#F90"/><stop offset="1" stop-color="#44B4E9"/></linearGradient><linearGradient id="b" x1="916.4" x2="916.4" y1="91.2" y2="37" gradientUnits="userSpaceOnUse"><stop stop-color="#6C2400"/><stop offset=".3" stop-color="#003A3E"/><stop offset=".7" stop-color="#267400"/><stop offset="1" stop-color="#FFD630"/></linearGradient><linearGradient id="c" x1="931.4" x2="931.4" y1="91.2" y2="37" gradientUnits="userSpaceOnUse"><stop stop-color="#F0C728"/><stop offset="1" stop-color="#fff"/></linearGradient><linearGradient id="d" x1="975.5" x2="975.2" y1="43" y2="91.4" gradientUnits="userSpaceOnUse"><stop stop-color="#F8E830"/><stop offset=".5" stop-color="#3CACD7"/><stop offset="1" stop-color="#002E5C"/></linearGradient></defs></svg>