<svg xmlns="http://www.w3.org/2000/svg" fill="none" viewBox="0 0 100 100"><path fill="url(#a)" d="M8.7 76.2H16L47.1 24h-7.4l-31 52.2Z"/><path fill="url(#b)" d="M23 76.2h7.5l31-52.2h-7.3L23 76.2Z"/><path fill="url(#c)" d="M37.5 76.2h7.4l31-52.2h-7.3L37.5 76.2Z"/><path fill="url(#d)" d="M52.9 76.2h7.4l31-52.2H84L52.9 76.2Z"/><path fill="url(#e)" d="M8.7 76.2H16L47.1 24h-7.4l-31 52.2Z"/><path fill="url(#f)" d="M23 76.2h7.5l31-52.2h-7.3L23 76.2Z"/><path fill="url(#g)" d="M37.5 76.2h7.4l31-52.2h-7.3L37.5 76.2Z"/><path fill="url(#h)" d="M52.9 76.2h7.4l31-52.2H84L52.9 76.2Z"/><defs><linearGradient id="a" x1="13.1" x2="13.1" y1="76.2" y2="24" gradientUnits="userSpaceOnUse"><stop stop-color="#F90"/><stop offset="1" stop-color="#44B4E9"/></linearGradient><linearGradient id="b" x1="27.3" x2="27.3" y1="76.2" y2="24" gradientUnits="userSpaceOnUse"><stop stop-color="#6C2400"/><stop offset=".3" stop-color="#003A3E"/><stop offset=".7" stop-color="#267400"/><stop offset="1" stop-color="#FFD630"/></linearGradient><linearGradient id="c" x1="41.8" x2="41.8" y1="76.2" y2="24" gradientUnits="userSpaceOnUse"><stop stop-color="#F0C728"/><stop offset="1" stop-color="#fff"/></linearGradient><linearGradient id="d" x1="84.1" x2="83.9" y1="29.8" y2="76.4" gradientUnits="userSpaceOnUse"><stop stop-color="#F8E830"/><stop offset=".5" stop-color="#3CACD7"/><stop offset="1" stop-color="#002E5C"/></linearGradient><linearGradient id="e" x1="13.1" x2="13.1" y1="76.2" y2="24" gradientUnits="userSpaceOnUse"><stop stop-color="#F90"/><stop offset="1" stop-color="#44B4E9"/></linearGradient><linearGradient id="f" x1="27.3" x2="27.3" y1="76.2" y2="24" gradientUnits="userSpaceOnUse"><stop stop-color="#6C2400"/><stop offset=".3" stop-color="#003A3E"/><stop offset=".7" stop-color="#267400"/><stop offset="1" stop-color="#FFD630"/></linearGradient><linearGradient id="g" x1="41.8" x2="41.8" y1="76.2" y2="24" gradientUnits="userSpaceOnUse"><stop stop-color="#F0C728"/><stop offset="1" stop-color="#fff"/></linearGradient><linearGradient id="h" x1="84.1" x2="83.9" y1="29.8" y2="76.4" gradientUnits="userSpaceOnUse"><stop stop-color="#F8E830"/><stop offset=".5" stop-color="#3CACD7"/><stop offset="1" stop-color="#002E5C"/></linearGradient></defs></svg>